<?xml version="1.0" encoding="UTF-8"?>
<svg version="1.1" xmlns="http://www.w3.org/2000/svg" width="381" height="112">
<path d="M0 0 C125.73 0 251.46 0 381 0 C381 36.96 381 73.92 381 112 C255.27 112 129.54 112 0 112 C0 75.04 0 38.08 0 0 Z " fill="#FDFDFE" transform="translate(0,0)"/>
<path d="M0 0 C19.8 0 39.6 0 60 0 C60 2.31 60 4.62 60 7 C60.83402344 7.10957031 61.66804688 7.21914062 62.52734375 7.33203125 C77.52773004 9.44548774 91.3680603 14.00060146 100.9140625 26.5078125 C109.75867013 39.71826901 112.28338747 52.88048188 109.33984375 68.50390625 C105.62896814 80.82529844 98.15283013 91.28270525 86.96875 97.75390625 C74.80440601 104.00168194 61.63452995 106.80613991 48.08203125 103.08984375 C41.57446159 100.71721284 36.25657198 97.46381751 31 93 C28.9964908 91.30547131 28.9964908 91.30547131 27 90 C24.79199472 90.21717352 24.79199472 90.21717352 23 91 C23.89419863 95.97131858 27.02735494 98.20858993 31 101 C42.39533617 108.01589463 51.31034324 110.35303182 64.5625 110.125 C65.57119141 110.11597656 66.57988281 110.10695313 67.61914062 110.09765625 C70.07968457 110.07433356 72.53970896 110.04160763 75 110 C74.67 110.66 74.34 111.32 74 112 C49.58 112 25.16 112 0 112 C0 75.04 0 38.08 0 0 Z " fill="#FDFDFD" transform="translate(0,0)"/>
<path d="M0 0 C14.5059584 -0.72529792 28.88575966 4.36559985 39.875 13.9375 C40.93140499 14.94307379 41.97984564 15.95766837 43 17 C45.45631001 16.50452457 45.45631001 16.50452457 48 15 C49.05047644 12.68895182 50.05007438 10.35416349 51 8 C52.8125 6 52.8125 6 55 5 C58.53320839 5.07360851 60.45721024 5.62861753 63.375 7.625 C65.65243688 10.9535616 65.56416593 13.0508385 65 17 C63.5625 19.375 63.5625 19.375 61 21 C58.72870549 21.4542589 56.53028747 21.68568483 54.21875 21.82421875 C52.04394942 21.99651809 50.09709876 22.41376557 48 23 C48.48210937 23.94101562 48.96421875 24.88203125 49.4609375 25.8515625 C50.0991747 27.10926522 50.7371834 28.36708392 51.375 29.625 C51.69210938 30.24246094 52.00921875 30.85992188 52.3359375 31.49609375 C58.2862791 43.2728115 59.49498924 58.17780618 56.125 71.078125 C54.96466211 74.23851899 53.64955013 77.06746643 52 80 C51.46890625 80.969375 50.9378125 81.93875 50.390625 82.9375 C42.62581334 96.04507198 31.52548318 104.43150126 17 109 C1.99211114 112.21445563 -13.03273148 110.36304763 -26.33984375 102.76171875 C-30.61506181 99.93040694 -34.33128835 96.56906763 -38 93 C-37.67 91.68 -37.34 90.36 -37 89 C-35.29296875 88.26953125 -35.29296875 88.26953125 -33 88 C-30.73828125 89.51171875 -30.73828125 89.51171875 -28.3125 91.6875 C-23.78728998 95.50627076 -19.55400692 98.01079894 -14 100 C-13.11699219 100.35320312 -12.23398437 100.70640625 -11.32421875 101.0703125 C1.71424421 104.71679215 15.32604885 102.42707177 27 96 C38.29175006 89.07659121 44.94266857 78.72329167 48.54418945 66.09130859 C50.80462365 55.72018953 49.96517976 43.35575416 45 34 C44.27103516 32.60201172 44.27103516 32.60201172 43.52734375 31.17578125 C37.34553035 20.46356087 27.53059101 12.93001278 15.6875 9.2890625 C10.52001671 8.05101963 5.28294921 7.50313802 0 7 C-1.125 2.25 -1.125 2.25 0 0 Z " fill="#1FB7FF" transform="translate(60,1)"/>
<path d="M0 0 C0.91072266 -0.020625 1.82144531 -0.04125 2.75976562 -0.0625 C3.63439453 -0.06765625 4.50902344 -0.0728125 5.41015625 -0.078125 C6.60523804 -0.09214355 6.60523804 -0.09214355 7.82446289 -0.10644531 C10.45327914 0.33700607 11.36026414 1.13334371 12.9375 3.25 C12.68603421 5.38745922 12.47824221 6.70925779 10.9375 8.25 C8.8420504 8.22671723 6.74644832 8.19709235 4.65185547 8.1328125 C-6.41718986 7.83223876 -14.92433172 8.64864334 -23.875 15.75 C-30.63759836 22.20907061 -35.07770453 31.36172213 -35.375 40.75 C-35.24767161 50.34207205 -31.74400332 59.35246655 -25.0625 66.25 C-17.92004145 72.87904715 -10.33427608 75.63777189 -0.61523438 75.41601562 C0.20654297 75.38185547 1.02832031 75.34769531 1.875 75.3125 C3.5504839 75.25270672 5.22630288 75.20149059 6.90234375 75.16015625 C7.99470337 75.11580444 7.99470337 75.11580444 9.10913086 75.07055664 C10.9375 75.25 10.9375 75.25 12.9375 77.25 C12.57068342 80.18453261 12.07312754 81.11437246 9.9375 83.25 C6.7719367 83.70279831 3.56919631 83.57398165 0.375 83.5625 C-0.49447266 83.57861328 -1.36394531 83.59472656 -2.25976562 83.61132812 C-10.2218237 83.61726553 -17.20196843 81.97255015 -23.8125 77.375 C-24.555 76.86066406 -25.2975 76.34632812 -26.0625 75.81640625 C-27.85092783 74.41570398 -29.30606787 73.00252855 -30.8125 71.3125 C-32.8535213 68.98843628 -32.8535213 68.98843628 -35.5 69.1875 C-38.65255992 70.49465899 -41.2578903 72.31793554 -44.0625 74.25 C-44.7225 74.25 -45.3825 74.25 -46.0625 74.25 C-45.959375 74.971875 -45.85625 75.69375 -45.75 76.4375 C-46.0625 79.25 -46.0625 79.25 -48.125 82.0625 C-51.0625 84.25 -51.0625 84.25 -54.625 84.8125 C-58.0625 84.25 -58.0625 84.25 -60.5 82.75 C-62.70620365 79.22007416 -62.85171838 76.30409022 -62.0625 72.25 C-60.625 69.75 -60.625 69.75 -58.0625 68.25 C-56.109375 68.2265625 -56.109375 68.2265625 -53.875 68.375 C-48.69722793 68.66646399 -45.93299297 66.62751845 -41.91015625 63.5625 C-40.0625 62.25 -40.0625 62.25 -38.0625 62.25 C-38.33964844 61.50234375 -38.61679687 60.7546875 -38.90234375 59.984375 C-39.26457031 58.99953125 -39.62679687 58.0146875 -40 57 C-40.53947266 55.53820312 -40.53947266 55.53820312 -41.08984375 54.046875 C-44.76346529 43.48336888 -43.60096668 33.39480787 -39.0625 23.25 C-33.14973088 12.31052514 -25.47869261 6.0483433 -14.0625 1.25 C-9.41945117 -0.13183109 -4.8076809 0.02733578 0 0 Z " fill="#EFB608" transform="translate(63.0625,13.75)"/>
<path d="M0 0 C22.89473684 0 22.89473684 0 29.4375 6.375 C33.50610311 13.21025322 33.89212225 20.23110207 33 28 C31.15095461 33.7122295 28.52661549 37.33252021 23.14233398 40.23022461 C18.89435762 41.7565915 14.51520375 41.40702755 10.0625 41.25 C6.741875 41.1675 3.42125 41.085 0 41 C0 27.47 0 13.94 0 0 Z " fill="#4D5060" transform="translate(154,35)"/>
<path d="M0 0 C2.31 0 4.62 0 7 0 C7 3.63 7 7.26 7 11 C7.66 10.67 8.32 10.34 9 10 C13.89633308 9.46281238 17.8677559 9.47581292 22.375 11.5625 C26.7446327 15.62001608 28.73152822 18.91934374 29.5 24.875 C29.17468568 30.26892129 27.46703295 35.72226909 23.421875 39.45703125 C19.32165337 42.0704608 15.74958435 42.53768879 11 42 C8.5625 41 8.5625 41 7 40 C6.505 40.495 6.505 40.495 6 41 C4.02 41 2.04 41 0 41 C0 27.47 0 13.94 0 0 Z " fill="#4E5261" transform="translate(352,35)"/>
<path d="M0 0 C4.1610986 1.53303633 5.53935571 2.30903357 8 6 C8.22705078 8.63549805 8.22705078 8.63549805 8.1953125 11.76171875 C8.18886719 12.87998047 8.18242187 13.99824219 8.17578125 15.15039062 C8.15902344 16.31763672 8.14226562 17.48488281 8.125 18.6875 C8.11597656 19.86634766 8.10695313 21.04519531 8.09765625 22.25976562 C8.07406423 25.17338026 8.0411454 28.08658892 8 31 C6.02 31 4.04 31 2 31 C1.67 30.34 1.34 29.68 1 29 C0.44183594 29.48597656 -0.11632812 29.97195312 -0.69140625 30.47265625 C-4.54750179 33.02381252 -8.53440759 32.67200663 -13 32 C-15.93423195 30.20353146 -17.47205355 29.0558929 -19 26 C-19.5 22.75 -19.5 22.75 -19 19 C-15.11664593 13.77878309 -10.22000255 12.00322622 -4 11 C-1 10.875 -1 10.875 1 11 C0.67 10.01 0.34 9.02 0 8 C-2.79870027 6.60064987 -4.90498792 6.74734595 -8 7 C-8.495 7.515625 -8.99 8.03125 -9.5 8.5625 C-9.995 9.036875 -10.49 9.51125 -11 10 C-14.1875 9.6875 -14.1875 9.6875 -17 9 C-16.73309994 5.79719931 -16.16670984 4.2056088 -14.125 1.6875 C-9.46576436 -0.82848725 -5.18632195 -0.63878452 0 0 Z " fill="#4F5362" transform="translate(264,45)"/>
<path d="M0 0 C3.81464301 1.58943459 5.835106 3.51462308 8 7 C8.34057617 9.65722656 8.34057617 9.65722656 8.29296875 12.640625 C8.28330078 13.71054687 8.27363281 14.78046875 8.26367188 15.8828125 C8.23853516 16.99398437 8.21339844 18.10515625 8.1875 19.25 C8.16719727 20.93996094 8.16719727 20.93996094 8.14648438 22.6640625 C8.11115645 25.44319264 8.0618252 28.22135363 8 31 C6.02 31 4.04 31 2 31 C1.67 30.01 1.34 29.02 1 28 C0.566875 28.474375 0.13375 28.94875 -0.3125 29.4375 C-3.41803687 32.3129971 -6.89899695 32.33069524 -10.99609375 32.29296875 C-14.14507222 31.83259178 -15.834621 30.23099654 -18 28 C-19.56935594 24.86128812 -19.35201103 22.46144178 -19 19 C-15.655762 14.43967545 -12.4518723 13.10885538 -7 12 C-4.33396207 11.59775568 -1.68300867 11.28242197 1 11 C0.67 10.01 0.34 9.02 0 8 C-3.98593068 7.26180489 -3.98593068 7.26180489 -8 7 C-9.36161311 7.96113866 -10.69855198 8.95884159 -12 10 C-15.25 9.6875 -15.25 9.6875 -18 9 C-15.16442653 -0.28005863 -8.71427216 -1.08928402 0 0 Z " fill="#4D5161" transform="translate(210,45)"/>
<path d="M0 0 C2.31 0 4.62 0 7 0 C7 5.94 7 11.88 7 18 C13.27 17.67 19.54 17.34 26 17 C26.33 11.39 26.66 5.78 27 0 C28.98 0 30.96 0 33 0 C33 13.53 33 27.06 33 41 C31.02 41 29.04 41 27 41 C27 35.39 27 29.78 27 24 C20.4 24 13.8 24 7 24 C7 29.61 7 35.22 7 41 C4.69 41 2.38 41 0 41 C0 27.47 0 13.94 0 0 Z " fill="#4A4E5E" transform="translate(278,35)"/>
<path d="M0 0 C6.26477382 0.11207109 10.96720103 3.07735451 15.51953125 7.20703125 C20.92820834 12.98008238 23.57209548 18.45101783 23.875 26.375 C23.53695898 34.89103334 20.49359056 40.21468402 14.6796875 46.390625 C9.68484933 50.93789702 4.29203711 53.10331852 -2.5 53.375 C-3.16 52.715 -3.82 52.055 -4.5 51.375 C-4.44921875 48.8671875 -4.44921875 48.8671875 -3.5 46.375 C-1.20703125 45.2578125 -1.20703125 45.2578125 1.6875 44.5 C7.29196242 42.71444305 10.44139404 40.40652354 13.5 35.375 C15.46445997 29.48162009 15.4862696 22.75018299 13 17 C9.47270434 10.89602737 3.0702762 8.18182596 -3.5 6.375 C-3.88218767 4.71885343 -4.21395102 3.05042976 -4.5 1.375 C-3.5 0.375 -3.5 0.375 0 0 Z " fill="#FD5968" transform="translate(66.5,29.625)"/>
<path d="M0 0 C2.31 0 4.62 0 7 0 C7.04898437 1.31355469 7.09796875 2.62710938 7.1484375 3.98046875 C7.22349468 5.71616595 7.29904123 7.45184203 7.375 9.1875 C7.4059375 10.05181641 7.436875 10.91613281 7.46875 11.80664062 C7.67345389 16.25895022 7.93722933 19.94992587 10 24 C11.258125 24.103125 12.51625 24.20625 13.8125 24.3125 C14.52019531 24.37050781 15.22789062 24.42851563 15.95703125 24.48828125 C18.18751739 24.16154575 18.18751739 24.16154575 19.71875 22.0625 C21.45301087 17.91719352 21.56447596 14.14097029 21.6875 9.6875 C21.72166016 8.85154297 21.75582031 8.01558594 21.79101562 7.15429688 C21.87305461 5.10332228 21.9382151 3.05168462 22 1 C23.98 1 25.96 1 28 1 C28 10.9 28 20.8 28 31 C26.02 31 24.04 31 22 31 C22 30.34 22 29.68 22 29 C20.989375 29.495 19.97875 29.99 18.9375 30.5 C15.1202753 32.10077165 12.16807609 32.60626561 8 32 C3.69314287 29.15584907 1.55012455 26.87585446 0 22 C-0.22705078 19.4128418 -0.22705078 19.4128418 -0.1953125 16.69921875 C-0.18886719 15.72275391 -0.18242187 14.74628906 -0.17578125 13.74023438 C-0.15902344 12.73283203 -0.14226562 11.72542969 -0.125 10.6875 C-0.11597656 9.66076172 -0.10695313 8.63402344 -0.09765625 7.57617188 C-0.07416201 5.05054101 -0.04131131 2.5253919 0 0 Z " fill="#4E5261" transform="translate(317,45)"/>
<path d="M0 0 C12 0 12 0 15.125 1.75 C19.04540503 6.45448603 19.4370949 10.21603436 19.31640625 16.234375 C18.83073212 20.47952663 17.64691708 22.63769992 15 26 C10.25832978 29.20760044 6.0687559 28 0 28 C0 18.76 0 9.52 0 0 Z " fill="#FAFAFB" transform="translate(161,42)"/>
<path d="M0 0 C2.31 0 4.62 0 7 0 C7 2.97 7 5.94 7 9 C9.97 9 12.94 9 16 9 C16 10.65 16 12.3 16 14 C13.03 14 10.06 14 7 14 C7.14017826 16.97953359 7.28686342 19.95849304 7.4375 22.9375 C7.47681641 23.78763672 7.51613281 24.63777344 7.55664062 25.51367188 C7.61948242 26.72700195 7.61948242 26.72700195 7.68359375 27.96484375 C7.72025146 28.7137085 7.75690918 29.46257324 7.79467773 30.23413086 C7.81771063 32.02461326 7.81771063 32.02461326 9 33 C11.32817964 33.36760731 13.6618385 33.70241581 16 34 C16 35.65 16 37.3 16 39 C14.06318839 39.08107583 12.1254066 39.13922475 10.1875 39.1875 C9.10855469 39.22230469 8.02960938 39.25710937 6.91796875 39.29296875 C4 39 4 39 2.17578125 37.67578125 C0.0838462 34.69425256 -0.12128836 32.07196617 -0.09765625 28.55078125 C-0.09443359 27.70322266 -0.09121094 26.85566406 -0.08789062 25.98242188 C-0.07951172 25.10134766 -0.07113281 24.22027344 -0.0625 23.3125 C-0.05798828 22.41982422 -0.05347656 21.52714844 -0.04882812 20.60742188 C-0.03704983 18.40488013 -0.02060164 16.20247401 0 14 C-1.98 14 -3.96 14 -6 14 C-6 12.02 -6 10.04 -6 8 C-4.02 8 -2.04 8 0 8 C0 5.36 0 2.72 0 0 Z " fill="#4E5261" transform="translate(226,37)"/>
<path d="M0 0 C3.79900886 0.4399743 6.01226031 2.40980825 8.9375 4.75 C16.28339208 10.22264056 24.22730338 13.34159008 33.1875 15.125 C37 16 37 16 39 19 C39 19.99 39 20.98 39 22 C24.6784378 22.83878998 12.5379467 18.10837619 1.8125 8.625 C0.53172102 7.4272137 -0.74307091 6.22279028 -2 5 C-1.125 1.125 -1.125 1.125 0 0 Z " fill="#1C9FFF" transform="translate(24,89)"/>
<path d="M0 0 C1.98 0.66 3.96 1.32 6 2 C6.646598 8.78927903 5.85889288 12.43818356 1.76953125 17.92578125 C-2.88023797 23.37617299 -7.83184657 27.50038631 -15 29 C-18 28.6875 -18 28.6875 -20 28 C-20.33 26.35 -20.66 24.7 -21 23 C-19.96875 22.566875 -18.9375 22.13375 -17.875 21.6875 C-17.235625 21.4090625 -16.59625 21.130625 -15.9375 20.84375 C-14.25584957 20.11141836 -12.56609158 19.39775846 -10.875 18.6875 C-5.85378588 15.74026562 -2.66766465 11.55888218 -1 6 C-0.62406934 4.0075675 -0.28020455 2.0081326 0 0 Z " fill="#DE3A6A" transform="translate(83,54)"/>
<path d="M0 0 C3.6875 0.3125 3.6875 0.3125 6.125 1.625 C8.67176115 6.00542917 8.51680461 10.38759458 7.6875 15.3125 C5.625 18.5625 5.625 18.5625 2.6875 20.3125 C-1.06852354 20.37725903 -3.25407604 20.131925 -6.25 17.8125 C-7.87431045 13.99059306 -7.87367469 10.40105848 -7.3125 6.3125 C-4.49076266 0.42365685 -4.49076266 0.42365685 0 0 Z " fill="#FAFAFB" transform="translate(365.3125,50.6875)"/>
<path d="M0 0 C-0.3125 3.375 -0.3125 3.375 -1 7 C-5.04192978 9.69461986 -7.2051496 9.23200889 -12 9 C-13 8 -13 8 -13.0625 5.4375 C-13.041875 4.633125 -13.02125 3.82875 -13 3 C-8.37802694 0.78145293 -5.23175837 -0.38281159 0 0 Z " fill="#F4F4F5" transform="translate(265,62)"/>
<path d="M0 0 C0.34982212 3.14839906 0.24633224 4.62023779 -1.5 7.3125 C-5.1599673 9.78297793 -7.63586513 9.35771597 -12 9 C-13 8 -13 8 -13.0625 5.4375 C-13.041875 4.633125 -13.02125 3.82875 -13 3 C-8.37802694 0.78145293 -5.23175837 -0.38281159 0 0 Z " fill="#F6F6F7" transform="translate(211,62)"/>
<path d="M0 0 C7.61960497 2.45793709 7.61960497 2.45793709 9.25 4.78125 C10.13377527 7.39575185 10.19747446 9.49597053 10.125 12.25 C10.10695313 13.14203125 10.08890625 14.0340625 10.0703125 14.953125 C10.03550781 15.96632813 10.03550781 15.96632813 10 17 C9.67 17 9.34 17 9 17 C8.938125 16.21625 8.87625 15.4325 8.8125 14.625 C8.544375 13.75875 8.27625 12.8925 8 12 C5.52363988 10.62533375 5.52363988 10.62533375 3 10 C3 11.98 3 13.96 3 16 C2.67 16 2.34 16 2 16 C1.34 10.72 0.68 5.44 0 0 Z " fill="#F35D75" transform="translate(80,44)"/>
<path d="M0 0 C1.98 0.66 3.96 1.32 6 2 C6 4.97 6 7.94 6 11 C3.69 10.01 1.38 9.02 -1 8 C-0.67 5.36 -0.34 2.72 0 0 Z " fill="#EA4266" transform="translate(83,54)"/>
</svg>
