<?xml version="1.0" encoding="UTF-8"?>
<!-- Generator: visioncortex VTracer 0.6.4 -->
<svg version="1.1" xmlns="http://www.w3.org/2000/svg" width="400" height="300">
<path d="M0 0 C3.08325358 -0.0582253 6.16636505 -0.09367134 9.25 -0.125 C10.55904297 -0.15013672 10.55904297 -0.15013672 11.89453125 -0.17578125 C12.73886719 -0.18222656 13.58320312 -0.18867187 14.453125 -0.1953125 C15.22817383 -0.20578613 16.00322266 -0.21625977 16.80175781 -0.22705078 C19.28481786 0.0294181 20.82624328 0.80537795 23 2 C24.03125 2.33 25.0625 2.66 26.125 3 C29 4 29 4 31 6 C31.639375 6.474375 32.27875 6.94875 32.9375 7.4375 C34.80979787 8.85590748 36.37868145 10.30818934 38 12 C38.556875 12.515625 39.11375 13.03125 39.6875 13.5625 C41 15 41 15 41 17 C41.99 17.99 41.99 17.99 43 19 C45.15755691 21.5890683 46.54946706 23.62100296 47 27 C46.67 27.66 46.34 28.32 46 29 C46.66 29 47.32 29 48 29 C48 35.27 48 41.54 48 48 C47.34 48 46.68 48 46 48 C46.061875 48.9075 46.12375 49.815 46.1875 50.75 C45.97583449 54.41886878 45.29198801 55.26724506 43 58 C42.649375 58.886875 42.29875 59.77375 41.9375 60.6875 C41 63 41 63 39 64 C38.505 65.485 38.505 65.485 38 67 C36.66666667 67.33333333 35.33333333 67.66666667 34 68 C33.505 69.485 33.505 69.485 33 71 C23.71768823 77.25135282 13.83219869 77.46403184 3 78 C3 77.34 3 76.68 3 76 C1.515 76.495 1.515 76.495 0 77 C-6.06401478 75.7045567 -10.6309511 73.3690489 -15 69 C-16.0209375 68.505 -16.0209375 68.505 -17.0625 68 C-19.53099724 66.72593691 -19.78630134 65.48845409 -20.875 63 C-21.9763934 60.68839291 -21.9763934 60.68839291 -25 59 C-25 58.01 -25 57.02 -25 56 C-25.66 55.67 -26.32 55.34 -27 55 C-27.38218767 53.34385343 -27.71395102 51.67542976 -28 50 C-28.33 49.34 -28.66 48.68 -29 48 C-29.2578895 45.71337981 -29.45800059 43.42004904 -29.625 41.125 C-29.72039063 39.89007813 -29.81578125 38.65515625 -29.9140625 37.3828125 C-29.98724402 34.50212164 -29.87655379 32.67990969 -29 30 C-28.66162109 28.75863281 -28.66162109 28.75863281 -28.31640625 27.4921875 C-28.06761719 26.62851563 -27.81882813 25.76484375 -27.5625 24.875 C-27.31628906 24.00617188 -27.07007813 23.13734375 -26.81640625 22.2421875 C-26 20 -26 20 -24 18 C-23.566875 17.01 -23.566875 17.01 -23.125 16 C-21.7363101 13.53121796 -20.50381387 13.21397036 -18 12 C-16.95884159 10.69855198 -15.96113866 9.36161311 -15 8 C-11.61239253 3.70034437 -7.25656682 2.08581593 -2 1 C-1.34 1.33 -0.68 1.66 0 2 C0 1.34 0 0.68 0 0 Z " fill="#80C3DC" transform="translate(83,110)"/>
<path d="M0 0 C2.97 0 5.94 0 9 0 C9 2.64 9 5.28 9 8 C10.65 8 12.3 8 14 8 C16 14.875 16 14.875 16 16 C13.69 16 11.38 16 9 16 C9.33 19.63 9.66 23.26 10 27 C11.65 27 13.3 27 15 27 C16.2278348 26.00455818 16.2278348 26.00455818 16.02734375 24.0390625 C15.96763779 22.43478941 15.90515542 20.83061715 15.83984375 19.2265625 C16.13532087 15.1187099 19.09887234 12.64514581 22 10 C27.01310696 7.11366569 31.53150441 6.4219174 37.25 7.375 C39 8 39 8 41 10 C42.2684375 10.8353125 42.2684375 10.8353125 43.5625 11.6875 C46.75814747 14.71926811 46.77231313 16.67394941 47 21 C47.03545297 22.66628955 47.05048188 24.33409803 47 26 C46.01 26.33 45.02 26.66 44 27 C44.495 29.97 44.495 29.97 45 33 C40.2895842 36.70104099 37.41047525 37.50892337 31.25 37.375 C29.93515625 37.36210937 28.6203125 37.34921875 27.265625 37.3359375 C22.76385043 36.87283629 21.11548484 34.11548484 18 31 C17.34 31.66 16.68 32.32 16 33 C16.66 33.33 17.32 33.66 18 34 C18 34.66 18 35.32 18 36 C12.63904667 37.12862175 7.44693314 37.09688221 2 37 C1.67 36.34 1.34 35.68 1 35 C0.46246094 34.18789062 0.46246094 34.18789062 -0.0859375 33.359375 C-1.40088961 29.9652251 -0.9601355 26.7957336 -0.625 23.25 C-0.56828125 22.55261719 -0.5115625 21.85523438 -0.453125 21.13671875 C-0.31232128 19.42360688 -0.15754028 17.71165389 0 16 C-1.32 16.33 -2.64 16.66 -4 17 C-4 14.03 -4 11.06 -4 8 C-2.68 8 -1.36 8 0 8 C0 5.36 0 2.72 0 0 Z M28 15 C27.34 16.65 26.68 18.3 26 20 C29.63 20 33.26 20 37 20 C36.34 18.35 35.68 16.7 35 15 C32.69 15 30.38 15 28 15 Z M28 26 C28 26.99 28 27.98 28 29 C29.06645115 30.29633621 29.06645115 30.29633621 31.5625 30.0625 C32.366875 30.041875 33.17125 30.02125 34 30 C34.66 28.68 35.32 27.36 36 26 C33.36 26 30.72 26 28 26 Z " fill="#1F1F1F" transform="translate(191,131)"/>
<path d="M0 0 C5.445 0.495 5.445 0.495 11 1 C11.33 13.54 11.66 26.08 12 39 C9.03 39 6.06 39 3 39 C1.05909174 37.05909174 1.60080565 33.52706098 1.4375 30.9375 C1.35371094 29.64714844 1.26992188 28.35679687 1.18359375 27.02734375 C1.12300781 26.02832031 1.06242187 25.02929688 1 24 C0.81566406 24.56589844 0.63132812 25.13179687 0.44140625 25.71484375 C-0.50742676 28.114337 -1.37683867 29.9848942 -3 32 C-6.1623344 33.05048286 -8.60985487 33 -12 33 C-13.32 30.36 -14.64 27.72 -16 25 C-16.33 29.62 -16.66 34.24 -17 39 C-20.63 39 -24.26 39 -28 39 C-27.67 26.46 -27.34 13.92 -27 1 C-23.04 1 -19.08 1 -15 1 C-12.69 5.62 -10.38 10.24 -8 15 C-5.36 10.05 -2.72 5.1 0 0 Z " fill="#212121" transform="translate(326,129)"/>
<path d="M0 0 C4.62 0 9.24 0 14 0 C14.08139142 2.39652528 14.14067009 4.79025436 14.1875 7.1875 C14.21263672 7.86103516 14.23777344 8.53457031 14.26367188 9.22851562 C14.32923478 13.70864748 13.66743649 16.39440999 11 20 C8.56013011 19.52558085 6.1856158 19.05833639 3.8125 18.3125 C3.214375 18.209375 2.61625 18.10625 2 18 C1.34 18.66 0.68 19.32 0 20 C-1.97119141 20.22705078 -1.97119141 20.22705078 -4.3515625 20.1953125 C-5.20234375 20.18886719 -6.053125 20.18242187 -6.9296875 20.17578125 C-8.26386719 20.15064453 -8.26386719 20.15064453 -9.625 20.125 C-10.5221875 20.11597656 -11.419375 20.10695312 -12.34375 20.09765625 C-14.56276586 20.0740497 -16.78125077 20.0411231 -19 20 C-18.34 18.35 -17.68 16.7 -17 15 C-18.794375 15.12375 -18.794375 15.12375 -20.625 15.25 C-25.24934637 15.2829135 -27.44232818 13.84613746 -31 11 C-30.62403791 8.21788056 -30.32681541 6.4120716 -28.5625 4.1875 C-27 3 -27 3 -25 3 C-24.67 4.98 -24.34 6.96 -24 9 C-23.01 9.33 -22.02 9.66 -21 10 C-21 9.34 -21 8.68 -21 8 C-19.81921875 8.00902344 -18.6384375 8.01804688 -17.421875 8.02734375 C-15.8645497 7.99919932 -14.30725797 7.96915158 -12.75 7.9375 C-11.97269531 7.94845703 -11.19539063 7.95941406 -10.39453125 7.97070312 C-8.0656986 7.90103719 -6.20329717 7.76891716 -4 7 C-2.01220954 4.76205003 -1.18544509 2.80746538 0 0 Z " fill="#797A66" transform="translate(101,143)"/>
<path d="M0 0 C2.97 0 5.94 0 9 0 C9 9.57 9 19.14 9 29 C14.94 28.67 20.88 28.34 27 28 C27 31.3 27 34.6 27 38 C17.76 38 8.52 38 -1 38 C-1.02290839 32.74888804 -1.04283563 27.49794822 -1.05493164 22.24682617 C-1.05997218 20.45905979 -1.06680454 18.67129755 -1.07543945 16.88354492 C-1.0875173 14.31948832 -1.09323094 11.75548603 -1.09765625 9.19140625 C-1.10281754 8.3872377 -1.10797882 7.58306915 -1.11329651 6.75453186 C-1.11349215 4.83598285 -1.06201983 2.91754632 -1 1 C-0.67 0.67 -0.34 0.34 0 0 Z " fill="#282828" transform="translate(270,130)"/>
<path d="M0 0 C3.63 0 7.26 0 11 0 C11 9.9 11 19.8 11 30 C16.61 30 22.22 30 28 30 C28 32.64 28 35.28 28 38 C28.66 38.33 29.32 38.66 30 39 C26.03069011 39.02465881 22.06140966 39.04284023 18.09204102 39.05493164 C16.74079614 39.05997057 15.38955674 39.06680177 14.03833008 39.07543945 C12.09979566 39.08752419 10.161222 39.09269828 8.22265625 39.09765625 C6.47094116 39.10551147 6.47094116 39.10551147 4.68383789 39.11352539 C2 39 2 39 1 38 C0.83982834 35.19023482 0.74049466 32.40226404 0.68359375 29.58984375 C0.66281265 28.74780899 0.64203156 27.90577423 0.62062073 27.03822327 C0.55503188 24.33806821 0.49619724 21.63781283 0.4375 18.9375 C0.39432363 17.11131759 0.35070964 15.28514546 0.30664062 13.45898438 C0.19934106 8.97276008 0.09810034 4.4864345 0 0 Z " fill="#262626" transform="translate(146,129)"/>
<path d="M0 0 C0 9.57 0 19.14 0 29 C5.61 29.33 11.22 29.66 17 30 C17.33 32.97 17.66 35.94 18 39 C13.52084672 39.02886338 9.04171709 39.04675187 4.5625 39.0625 C3.28310547 39.07087891 2.00371094 39.07925781 0.68554688 39.08789062 C-0.52939453 39.09111328 -1.74433594 39.09433594 -2.99609375 39.09765625 C-4.12200928 39.10289307 -5.2479248 39.10812988 -6.40795898 39.11352539 C-9 39 -9 39 -10 38 C-10.08858646 35.26105915 -10.11523479 32.5474673 -10.09765625 29.80859375 C-10.0962413 28.98875504 -10.09482635 28.16891632 -10.09336853 27.32423401 C-10.08775289 24.69528618 -10.07519779 22.06642227 -10.0625 19.4375 C-10.05748701 17.65950643 -10.05292376 15.88151154 -10.04882812 14.10351562 C-10.03777839 9.73564455 -10.02050331 5.36783652 -10 1 C-8.5209084 0.83266843 -7.04172444 0.66615314 -5.5625 0.5 C-4.32693359 0.36078125 -4.32693359 0.36078125 -3.06640625 0.21875 C-1 0 -1 0 0 0 Z " fill="#252525" transform="translate(250,129)"/>
<path d="M0 0 C4.98046875 0.09765625 4.98046875 0.09765625 9.9609375 0.1953125 C9.9609375 4.4853125 9.9609375 8.7753125 9.9609375 13.1953125 C5.3409375 13.1953125 0.7209375 13.1953125 -4.0390625 13.1953125 C-4.6990625 14.8453125 -5.3590625 16.4953125 -6.0390625 18.1953125 C-6.6990625 19.1853125 -7.3590625 20.1753125 -8.0390625 21.1953125 C-10.98970398 21.4161689 -13.72274481 21.47592239 -16.6640625 21.3828125 C-17.86675781 21.36250977 -17.86675781 21.36250977 -19.09375 21.34179688 C-21.07580628 21.30640301 -23.05751801 21.25259484 -25.0390625 21.1953125 C-25.0390625 21.8553125 -25.0390625 22.5153125 -25.0390625 23.1953125 C-26.3590625 22.8653125 -27.6790625 22.5353125 -29.0390625 22.1953125 C-29.38590259 16.90600118 -29.38590259 16.90600118 -29.0390625 14.1953125 C-27.2265625 12.1328125 -27.2265625 12.1328125 -25.0390625 11.1953125 C-24.0490625 11.5253125 -23.0590625 11.8553125 -22.0390625 12.1953125 C-19.51898164 11.64048589 -17.0805326 11.02048846 -14.6015625 10.3203125 C-7.75205649 8.48149799 -1.14679014 7.46454461 5.9609375 7.1953125 C4.06066455 4.11781077 4.06066455 4.11781077 0.91796875 2.5859375 C0.21027344 2.53953125 -0.49742188 2.493125 -1.2265625 2.4453125 C-2.4846875 2.3628125 -3.7428125 2.2803125 -5.0390625 2.1953125 C-3.0390625 0.1953125 -3.0390625 0.1953125 0 0 Z " fill="#F7F7F1" transform="translate(105.0390625,129.8046875)"/>
<path d="M0 0 C3.63 0 7.26 0 11 0 C11 9.57 11 19.14 11 29 C8.03 29 5.06 29 2 29 C0.16780354 27.16780354 0.76098672 24.24286259 0.68359375 21.77734375 C0.64169922 20.51728516 0.59980469 19.25722656 0.55664062 17.95898438 C0.51682404 16.61849264 0.47711186 15.2779978 0.4375 13.9375 C0.39431958 12.59308477 0.35070544 11.2486834 0.30664062 9.90429688 C0.20014642 6.6029766 0.0981354 3.30157764 0 0 Z " fill="#262626" transform="translate(175,139)"/>
<path d="M0 0 C9.9 0 19.8 0 30 0 C29.34 1.65 28.68 3.3 28 5 C25.56013011 4.52558085 23.1856158 4.05833639 20.8125 3.3125 C20.214375 3.209375 19.61625 3.10625 19 3 C18.34 3.66 17.68 4.32 17 5 C15.02880859 5.22705078 15.02880859 5.22705078 12.6484375 5.1953125 C11.37226562 5.18564453 11.37226562 5.18564453 10.0703125 5.17578125 C8.73613281 5.15064453 8.73613281 5.15064453 7.375 5.125 C6.02921875 5.11146484 6.02921875 5.11146484 4.65625 5.09765625 C2.43723414 5.0740497 0.21874923 5.0411231 -2 5 C-1.34 3.35 -0.68 1.7 0 0 Z " fill="#3B4460" transform="translate(84,158)"/>
<path d="M0 0 C4.62 0 9.24 0 14 0 C14 2.64 14 5.28 14 8 C8.06 8 2.12 8 -4 8 C-2.68 5.36 -1.36 2.72 0 0 Z " fill="#2E3F78" transform="translate(101,143)"/>
<path d="M0 0 C0.76441406 -0.01675781 1.52882813 -0.03351563 2.31640625 -0.05078125 C4.94796509 0.39992772 5.83762261 1.21170253 7.4375 3.3125 C7.4375 3.9725 7.4375 4.6325 7.4375 5.3125 C6.848479 5.42319824 6.25945801 5.53389648 5.65258789 5.64794922 C2.93477126 6.15961966 0.21738601 6.67354772 -2.5 7.1875 C-3.88928711 7.44853516 -3.88928711 7.44853516 -5.30664062 7.71484375 C-11.08541924 8.80977022 -16.82761685 10.00671122 -22.5625 11.3125 C-18.83917778 6.74296818 -13.7707991 4.76641015 -8.5625 2.3125 C-7.89347656 1.93996094 -7.22445312 1.56742188 -6.53515625 1.18359375 C-4.23459988 0.1677045 -2.50762114 0.01272904 0 0 Z " fill="#678FAE" transform="translate(103.5625,131.6875)"/>
<path d="M0 0 C-1.32 2.31 -2.64 4.62 -4 7 C-9.61 7 -15.22 7 -21 7 C-21 7.66 -21 8.32 -21 9 C-22.32 8.67 -23.64 8.34 -25 8 C-24.67 6.68 -24.34 5.36 -24 4 C-21.50276548 3.32114013 -19.00303859 2.65682573 -16.5 2 C-15.80390625 1.80921875 -15.1078125 1.6184375 -14.390625 1.421875 C-9.4587081 0.14322988 -5.09419909 -0.18357474 0 0 Z " fill="#DEDFD5" transform="translate(101,144)"/>
<path d="M0 0 C6.27 0 12.54 0 19 0 C19 1.98 19 3.96 19 6 C9.43 5.67 -0.14 5.34 -10 5 C-8 3 -8 3 -6.02880859 2.77294922 C-5.24328613 2.78342285 -4.45776367 2.79389648 -3.6484375 2.8046875 C-2.79765625 2.81113281 -1.946875 2.81757813 -1.0703125 2.82421875 C0.26386719 2.84935547 0.26386719 2.84935547 1.625 2.875 C2.97078125 2.88853516 2.97078125 2.88853516 4.34375 2.90234375 C6.56276586 2.9259503 8.78125077 2.9588769 11 3 C11 2.34 11 1.68 11 1 C7.37 1 3.74 1 0 1 C0 0.67 0 0.34 0 0 Z " fill="#5C5D50" transform="translate(96,152)"/>
<path d="M0 0 C11.55 0 23.1 0 35 0 C35 0.33 35 0.66 35 1 C28.73 1 22.46 1 16 1 C16 1.66 16 2.32 16 3 C9.4 3 2.8 3 -4 3 C-3.67 2.34 -3.34 1.68 -3 1 C-2.01 1.33 -1.02 1.66 0 2 C0 1.34 0 0.68 0 0 Z " fill="#938D75" transform="translate(80,151)"/>
<path d="M0 0 C2.97 0 5.94 0 9 0 C9 2.64 9 5.28 9 8 C6.03 8 3.06 8 0 8 C0 5.36 0 2.72 0 0 Z " fill="#242423" transform="translate(176,129)"/>
<path d="M0 0 C1.77503906 0.03480469 1.77503906 0.03480469 3.5859375 0.0703125 C5.36871094 0.09738281 5.36871094 0.09738281 7.1875 0.125 C8.10273437 0.14820313 9.01796875 0.17140625 9.9609375 0.1953125 C9.9609375 2.8353125 9.9609375 5.4753125 9.9609375 8.1953125 C6.9909375 8.1953125 4.0209375 8.1953125 0.9609375 8.1953125 C0.9609375 7.8653125 0.9609375 7.5353125 0.9609375 7.1953125 C2.6109375 7.1953125 4.2609375 7.1953125 5.9609375 7.1953125 C4.99430001 5.09319553 4.99430001 5.09319553 2.9609375 3.1953125 C0.26169178 2.52981799 -2.24537887 2.37850487 -5.0390625 2.1953125 C-3.0390625 0.1953125 -3.0390625 0.1953125 0 0 Z " fill="#E3E2D8" transform="translate(105.0390625,129.8046875)"/>
<path d="M0 0 C5.28 0 10.56 0 16 0 C16 1.65 16 3.3 16 5 C13.36 5 10.72 5 8 5 C8 4.01 8 3.02 8 2 C5.36 2 2.72 2 0 2 C0 1.34 0 0.68 0 0 Z " fill="#EAE9E0" transform="translate(99,138)"/>
<path d="M0 0 C1.25425781 0.01804688 2.50851563 0.03609375 3.80078125 0.0546875 C5.22970703 0.08949219 5.22970703 0.08949219 6.6875 0.125 C6.6875 0.785 6.6875 1.445 6.6875 2.125 C-0.40955662 3.46995828 -7.0850395 4.36591535 -14.3125 4.125 C-10.10830626 -0.07919374 -5.73618374 -0.10721839 0 0 Z " fill="#8CABC2" transform="translate(104.3125,134.875)"/>
<path d="M0 0 C7.26 0.33 14.52 0.66 22 1 C21.67 1.66 21.34 2.32 21 3 C15.39 3 9.78 3 4 3 C4 3.66 4 4.32 4 5 C2.68 4.67 1.36 4.34 0 4 C0 2.68 0 1.36 0 0 Z " fill="#C1C3B2" transform="translate(76,148)"/>
<path d="M0 0 C0.66 0 1.32 0 2 0 C2 3.3 2 6.6 2 10 C0.35 9.67 -1.3 9.34 -3 9 C-3.75 7.3125 -3.75 7.3125 -4 5 C-2.1875 2.25 -2.1875 2.25 0 0 Z " fill="#314279" transform="translate(74,146)"/>
<path d="M0 0 C5.28 0 10.56 0 16 0 C15.67 0.66 15.34 1.32 15 2 C12.71484375 2.4140625 12.71484375 2.4140625 9.9375 2.625 C8.55884766 2.73714844 8.55884766 2.73714844 7.15234375 2.8515625 C6.44207031 2.90054688 5.73179688 2.94953125 5 3 C5 3.33 5 3.66 5 4 C2.69 4 0.38 4 -2 4 C-1.34 2.68 -0.68 1.36 0 0 Z " fill="#253469" transform="translate(84,159)"/>
<path d="M0 0 C3.3 0 6.6 0 10 0 C9.34 1.65 8.68 3.3 8 5 C6.35 4.67 4.7 4.34 3 4 C2.67 3.01 2.34 2.02 2 1 C1.34 0.67 0.68 0.34 0 0 Z " fill="#2C2D2D" transform="translate(104,158)"/>
<path d="M0 0 C1.65 0 3.3 0 5 0 C5 1.32 5 2.64 5 4 C4.34 4 3.68 4 3 4 C3 4.66 3 5.32 3 6 C1.02 6 -0.96 6 -3 6 C-2.01 4.02 -1.02 2.04 0 0 Z " fill="#475DA9" transform="translate(101,143)"/>
<path d="M0 0 C1.32 1.32 2.64 2.64 4 4 C-0.29 4.99 -4.58 5.98 -9 7 C-5.88742431 3.88742431 -3.71872691 2.0659594 0 0 Z " fill="#7A99AE" transform="translate(90,136)"/>
<path d="M0 0 C1.11375 0.3403125 1.11375 0.3403125 2.25 0.6875 C2.25 1.3475 2.25 2.0075 2.25 2.6875 C-3.5 5.6875 -3.5 5.6875 -5.75 5.6875 C-6.08 4.6975 -6.41 3.7075 -6.75 2.6875 C-4.29511132 0.41445492 -3.41240272 -0.38777304 0 0 Z " fill="#D3D6C9" transform="translate(82.75,141.3125)"/>
<path d="M0 0 C-4.29 0.99 -8.58 1.98 -13 3 C-13 2.34 -13 1.68 -13 1 C-11.59054634 0.43983252 -10.1719969 -0.09748502 -8.75 -0.625 C-7.96109375 -0.92664063 -7.1721875 -1.22828125 -6.359375 -1.5390625 C-4 -2 -4 -2 0 0 Z " fill="#E7E6DD" transform="translate(98,141)"/>
<path d="M0 0 C2.31 0 4.62 0 7 0 C7 1.32 7 2.64 7 4 C4.69 4 2.38 4 0 4 C0 2.68 0 1.36 0 0 Z " fill="#FBFBF7" transform="translate(108,139)"/>
<path d="M0 0 C0.33 0 0.66 0 1 0 C1 2.31 1 4.62 1 7 C-0.98 7 -2.96 7 -5 7 C-4.67 6.01 -4.34 5.02 -4 4 C-2.68 4 -1.36 4 0 4 C0 2.68 0 1.36 0 0 Z " fill="#3C4C83" transform="translate(113,143)"/>
<path d="M0 0 C1.65 0 3.3 0 5 0 C5 1.32 5 2.64 5 4 C3.35 4.33 1.7 4.66 0 5 C0 3.35 0 1.7 0 0 Z " fill="#4F629F" transform="translate(108,143)"/>
<path d="M0 0 C1.32 0 2.64 0 4 0 C4 1.32 4 2.64 4 4 C1.03 4 -1.94 4 -5 4 C-5 3.67 -5 3.34 -5 3 C-3.35 3 -1.7 3 0 3 C0 2.01 0 1.02 0 0 Z " fill="#D3D5CA" transform="translate(111,134)"/>
<path d="" fill="#000000" transform="translate(0,0)"/>
<path d="" fill="#000000" transform="translate(0,0)"/>
<path d="" fill="#000000" transform="translate(0,0)"/>
<path d="" fill="#000000" transform="translate(0,0)"/>
<path d="" fill="#000000" transform="translate(0,0)"/>
<path d="" fill="#000000" transform="translate(0,0)"/>
<path d="" fill="#000000" transform="translate(0,0)"/>
<path d="" fill="#000000" transform="translate(0,0)"/>
<path d="" fill="#000000" transform="translate(0,0)"/>
<path d="" fill="#000000" transform="translate(0,0)"/>
<path d="" fill="#000000" transform="translate(0,0)"/>
<path d="" fill="#000000" transform="translate(0,0)"/>
<path d="" fill="#000000" transform="translate(0,0)"/>
<path d="" fill="#000000" transform="translate(0,0)"/>
<path d="" fill="#000000" transform="translate(0,0)"/>
<path d="" fill="#000000" transform="translate(0,0)"/>
<path d="" fill="#000000" transform="translate(0,0)"/>
<path d="" fill="#000000" transform="translate(0,0)"/>
<path d="" fill="#000000" transform="translate(0,0)"/>
<path d="" fill="#000000" transform="translate(0,0)"/>
<path d="" fill="#000000" transform="translate(0,0)"/>
<path d="" fill="#000000" transform="translate(0,0)"/>
<path d="" fill="#000000" transform="translate(0,0)"/>
<path d="" fill="#000000" transform="translate(0,0)"/>
<path d="" fill="#000000" transform="translate(0,0)"/>
<path d="" fill="#000000" transform="translate(0,0)"/>
<path d="" fill="#000000" transform="translate(0,0)"/>
<path d="" fill="#000000" transform="translate(0,0)"/>
<path d="" fill="#000000" transform="translate(0,0)"/>
<path d="" fill="#000000" transform="translate(0,0)"/>
<path d="" fill="#000000" transform="translate(0,0)"/>
<path d="" fill="#000000" transform="translate(0,0)"/>
<path d="" fill="#000000" transform="translate(0,0)"/>
<path d="" fill="#000000" transform="translate(0,0)"/>
<path d="" fill="#000000" transform="translate(0,0)"/>
<path d="" fill="#000000" transform="translate(0,0)"/>
<path d="" fill="#000000" transform="translate(0,0)"/>
<path d="" fill="#000000" transform="translate(0,0)"/>
<path d="" fill="#000000" transform="translate(0,0)"/>
<path d="" fill="#000000" transform="translate(0,0)"/>
<path d="" fill="#000000" transform="translate(0,0)"/>
<path d="" fill="#000000" transform="translate(0,0)"/>
<path d="" fill="#000000" transform="translate(0,0)"/>
<path d="" fill="#000000" transform="translate(0,0)"/>
<path d="" fill="#000000" transform="translate(0,0)"/>
<path d="" fill="#000000" transform="translate(0,0)"/>
<path d="" fill="#000000" transform="translate(0,0)"/>
<path d="" fill="#000000" transform="translate(0,0)"/>
<path d="" fill="#000000" transform="translate(0,0)"/>
<path d="" fill="#000000" transform="translate(0,0)"/>
<path d="" fill="#000000" transform="translate(0,0)"/>
<path d="" fill="#000000" transform="translate(0,0)"/>
<path d="" fill="#000000" transform="translate(0,0)"/>
<path d="" fill="#000000" transform="translate(0,0)"/>
<path d="" fill="#000000" transform="translate(0,0)"/>
<path d="" fill="#000000" transform="translate(0,0)"/>
<path d="" fill="#000000" transform="translate(0,0)"/>
<path d="" fill="#000000" transform="translate(0,0)"/>
<path d="" fill="#000000" transform="translate(0,0)"/>
<path d="" fill="#000000" transform="translate(0,0)"/>
<path d="" fill="#000000" transform="translate(0,0)"/>
<path d="" fill="#000000" transform="translate(0,0)"/>
<path d="" fill="#000000" transform="translate(0,0)"/>
<path d="" fill="#000000" transform="translate(0,0)"/>
</svg>
