<svg version="1.1" id="Layer_1" xmlns="http://www.w3.org/2000/svg" xmlns:xlink="http://www.w3.org/1999/xlink" x="0px" y="0px"
	 width="100%" viewBox="0 0 381 112" enable-background="new 0 0 381 112" xml:space="preserve">
<path fill="#FEFEFE" opacity="1.000000" stroke="none" 
	d="
M382.000000,66.000000 
	C382.000000,81.647766 382.000000,97.295540 382.000000,113.000000 
	C276.979126,113.000000 171.958221,113.000000 66.684410,112.657059 
	C66.921677,112.226318 67.408432,112.100639 67.902504,112.056129 
	C103.110619,108.884499 126.004852,75.665031 116.155983,41.736954 
	C114.560143,36.239532 111.875107,31.058287 109.306793,24.786470 
	C111.904045,24.254454 114.349968,23.243786 116.736038,23.369463 
	C121.900551,23.641478 125.571129,21.441233 126.373238,16.887255 
	C127.130920,12.585462 124.484268,8.716893 120.008850,7.584545 
	C115.805832,6.521120 111.838081,9.399164 110.074173,13.858713 
	C109.089630,16.347824 106.874672,18.350262 105.109474,20.712101 
	C102.801132,18.569618 101.595207,17.425642 100.363052,16.310637 
	C90.733124,7.596261 79.300201,3.160684 66.463936,2.146302 
	C63.698757,1.927784 60.188976,1.221338 60.033543,5.468331 
	C59.889709,9.398403 63.248287,8.960421 65.871841,9.076825 
	C101.847298,10.673026 123.353836,51.695045 104.191315,82.266129 
	C94.651077,97.486244 80.379494,104.401237 62.454239,105.332809 
	C59.407890,105.079254 56.743870,104.880081 53.792786,104.469482 
	C49.055073,102.680115 44.604416,101.102150 39.914177,99.306442 
	C36.493992,96.732018 33.478500,94.084015 30.060209,92.146736 
	C28.452759,91.235748 26.070515,91.691879 24.039375,91.528488 
	C24.453583,93.405090 24.227160,96.102150 25.394781,97.013847 
	C30.029724,100.632904 35.100231,103.694130 40.267403,107.213852 
	C44.986004,108.724648 49.446552,109.983635 54.169632,111.461380 
	C55.621445,112.120094 56.810722,112.560051 58.000000,113.000000 
	C39.108803,113.000000 20.217607,113.000000 1.000000,113.000000 
	C1.000000,106.649757 1.000000,100.293922 1.313080,93.613991 
	C3.361369,96.771294 5.906457,99.761345 9.994822,98.901901 
	C12.568214,98.360931 16.403671,96.296562 16.792713,94.342232 
	C17.842932,89.066513 21.866226,87.594154 25.363838,85.051384 
	C28.581221,82.712349 30.854441,82.307358 33.493885,85.955330 
	C35.073456,88.138451 37.733139,89.540070 40.091103,91.572311 
	C50.241356,98.438385 61.216187,99.674751 72.630943,97.441544 
	C74.215111,97.131607 75.340630,94.477341 76.678467,92.908348 
	C74.925079,92.065567 72.960091,90.222328 71.452385,90.541206 
	C61.118507,92.726791 51.788471,90.440346 42.744938,84.874420 
	C33.370804,77.682976 28.740713,68.372765 28.155136,56.618637 
	C31.495901,30.962332 46.038891,19.852676 71.951729,22.609892 
	C73.433899,22.767597 75.115334,21.052452 76.704033,20.208939 
	C75.560707,18.657122 74.565552,15.925446 73.248116,15.759990 
	C67.862236,15.083586 62.322056,14.602615 56.939781,15.113844 
	C36.247475,17.079269 19.046070,38.618912 21.423735,59.412659 
	C22.598938,65.334335 23.849026,70.867683 25.253170,77.082947 
	C21.510790,79.093330 17.224905,83.340378 13.220400,83.089851 
	C7.254509,82.716614 3.896883,84.571686 1.000000,89.000000 
	C1.000000,59.691082 1.000000,30.382162 1.000000,1.054613 
	C128.000015,1.054613 255.000015,1.054613 382.000000,1.054613 
	C382.000000,19.760378 382.000000,38.411530 381.661041,57.391403 
	C378.627869,47.390770 372.992035,44.495754 359.799927,47.003677 
	C359.799927,43.497425 359.799927,40.077049 359.799927,36.482040 
	C357.282959,36.482040 355.251007,36.482040 353.242279,36.482040 
	C353.242279,50.168358 353.242279,63.514942 353.242279,76.076767 
	C357.961823,76.739128 362.168488,77.395157 366.394562,77.883080 
	C367.681854,78.031708 369.036133,77.803780 370.336609,77.600502 
	C377.014008,76.556725 379.395844,71.159668 382.000000,66.000000 
M83.432632,55.833405 
	C83.276482,58.215523 83.120331,60.597641 82.536095,63.502930 
	C79.577774,70.319397 74.887138,74.995461 67.241829,76.262329 
	C64.830849,76.661842 62.232952,77.948387 63.552113,80.792305 
	C64.188568,82.164406 67.237160,83.510887 68.828201,83.168968 
	C78.923729,80.999405 86.115959,75.237221 89.679024,64.504288 
	C89.910339,61.678562 90.141663,58.852837 90.397285,55.184391 
	C89.727791,52.414604 89.058304,49.644821 88.217957,46.173584 
	C84.081055,37.436043 77.307663,32.085556 67.689674,30.828009 
	C66.264488,30.641668 64.596649,32.311237 63.041069,33.122169 
	C64.094513,34.694324 64.950478,37.423939 66.234772,37.643063 
	C72.606194,38.730133 77.010796,42.450645 81.070816,47.849995 
	C81.930824,50.221283 82.790840,52.592571 83.432632,55.833405 
M173.004089,76.987251 
	C182.264465,74.947342 187.355377,69.118614 188.090927,59.713932 
	C188.943924,48.807537 185.156784,39.856071 177.225143,37.833290 
	C170.196564,36.040817 162.653976,36.263870 155.364105,35.599510 
	C155.364105,50.213726 155.364105,63.465427 155.364105,77.009743 
	C161.153061,77.009743 166.627853,77.009743 173.004089,76.987251 
M312.342468,47.548317 
	C312.342468,43.815750 312.342468,40.083187 312.342468,36.463589 
	C309.605408,36.463589 307.700653,36.463589 305.250793,36.463589 
	C305.250793,42.186897 305.250793,47.587200 305.250793,53.147209 
	C298.631042,53.147209 292.566040,53.147209 285.875397,53.147209 
	C285.875397,47.355011 285.875397,41.804035 285.875397,36.439503 
	C283.317963,36.439503 281.391632,36.439503 279.419922,36.439503 
	C279.419922,50.112698 279.419922,63.474495 279.419922,76.800568 
	C281.719543,76.800568 283.660797,76.800568 286.078674,76.800568 
	C286.078674,71.197083 286.078674,65.793678 286.078674,60.378376 
	C292.770325,60.378376 298.976227,60.378376 305.523499,60.378376 
	C305.523499,66.018051 305.523499,71.304893 305.523499,76.726669 
	C307.934784,76.726669 309.991028,76.726669 312.342072,76.726669 
	C312.342072,67.134880 312.342072,57.835209 312.342468,47.548317 
M273.329956,67.490891 
	C273.260468,63.501240 273.241302,59.509911 273.108429,55.522373 
	C272.949860,50.764423 270.448547,47.482662 265.891541,46.617294 
	C262.387909,45.951946 258.560760,45.808308 255.085785,46.491745 
	C251.285751,47.239109 248.349121,49.760235 247.763046,54.332153 
	C249.683136,54.961784 251.383377,55.519329 252.996887,56.048428 
	C258.704895,50.294228 264.317474,50.581806 266.092865,56.685841 
	C261.594849,57.730164 257.003296,58.470428 252.636215,59.897625 
	C247.835327,61.466587 245.571686,65.429092 246.189270,69.874001 
	C246.827393,74.466560 250.512238,78.091583 255.496643,77.866951 
	C259.275177,77.696663 262.997009,76.267654 265.901520,75.594147 
	C268.457397,76.222656 270.648834,76.761551 273.329529,77.420753 
	C273.329529,73.751724 273.329529,71.099411 273.329956,67.490891 
M212.292435,46.798260 
	C202.536514,44.064266 196.198593,46.442261 193.246429,54.167404 
	C196.066345,55.369678 198.204590,56.768902 201.363678,53.575035 
	C204.945114,49.954208 210.220734,51.913708 211.842224,56.708630 
	C207.316055,57.716274 202.699844,58.407219 198.311203,59.810024 
	C193.324646,61.403954 191.246765,65.320480 191.976105,70.326561 
	C192.590607,74.544670 196.376648,78.156013 201.122421,77.867386 
	C205.057907,77.628036 208.917664,76.143372 211.757141,75.462929 
	C214.303055,76.196342 216.313095,76.775383 218.862381,77.509766 
	C218.862381,69.426895 219.410660,62.229267 218.597855,55.188770 
	C218.263504,52.292583 214.998932,49.734684 212.292435,46.798260 
M339.504150,61.307152 
	C339.218384,63.271942 339.258362,65.357582 338.583069,67.177841 
	C336.872223,71.789124 330.461914,73.224579 327.660278,69.415199 
	C326.114258,67.313103 325.429596,64.254745 325.222626,61.560944 
	C324.846313,56.662979 325.115814,51.715393 325.115814,46.826607 
	C322.374420,46.826607 320.329773,46.826607 318.149658,46.826607 
	C318.149658,53.217049 317.835815,59.219803 318.217682,65.177971 
	C318.922516,76.175362 327.267426,80.879974 337.213379,76.223373 
	C338.082581,75.816414 339.189850,75.454994 340.072662,75.634041 
	C342.054138,76.035904 343.963959,76.791229 346.142273,77.478127 
	C346.142273,66.570091 346.142273,56.668308 346.142273,46.713295 
	C343.858307,46.713295 341.936523,46.713295 339.507019,46.713295 
	C339.507019,51.447571 339.507019,55.902523 339.504150,61.307152 
M241.163712,52.003197 
	C241.889465,50.419285 242.615219,48.835373 243.587173,46.714149 
	C239.633041,46.473537 236.906540,46.307625 234.085938,46.135986 
	C233.943420,43.265350 233.822662,40.832939 233.695999,38.281654 
	C231.335587,38.281654 229.288193,38.281654 226.913269,38.281654 
	C226.913269,41.023415 226.913269,43.474266 226.913269,45.955940 
	C224.874664,46.314972 223.157730,46.617348 221.473862,46.913902 
	C221.473862,48.686951 221.473862,50.121571 221.473862,51.675571 
	C223.403671,51.933167 225.112366,52.161243 226.975311,52.409912 
	C226.975311,58.072262 226.838455,63.384842 227.014038,68.687080 
	C227.187698,73.931320 229.682190,76.616081 234.891373,77.216263 
	C237.443893,77.510353 240.058334,77.267212 242.961823,77.267212 
	C242.855560,74.921806 242.784775,73.359489 242.722351,71.981682 
	C239.021271,71.179977 234.268738,72.947510 233.988449,67.234131 
	C233.746719,62.306660 233.938278,57.357929 233.938278,52.017391 
	C236.347321,52.017391 238.302200,52.017391 241.163712,52.003197 
z"/>
<path fill="#1FB7FF" opacity="1.000000" stroke="none" 
	d="
M62.836571,105.387184 
	C80.379494,104.401237 94.651077,97.486244 104.191315,82.266129 
	C123.353836,51.695045 101.847298,10.673026 65.871841,9.076825 
	C63.248287,8.960421 59.889709,9.398403 60.033543,5.468331 
	C60.188976,1.221338 63.698757,1.927784 66.463936,2.146302 
	C79.300201,3.160684 90.733124,7.596261 100.363052,16.310637 
	C101.595207,17.425642 102.801132,18.569618 105.109474,20.712101 
	C106.874672,18.350262 109.089630,16.347824 110.074173,13.858713 
	C111.838081,9.399164 115.805832,6.521120 120.008850,7.584545 
	C124.484268,8.716893 127.130920,12.585462 126.373238,16.887255 
	C125.571129,21.441233 121.900551,23.641478 116.736038,23.369463 
	C114.349968,23.243786 111.904045,24.254454 109.306793,24.786470 
	C111.875107,31.058287 114.560143,36.239532 116.155983,41.736954 
	C126.004852,75.665031 103.110619,108.884499 67.902504,112.056129 
	C67.408432,112.100639 66.921677,112.226318 66.215752,112.657059 
	C65.555557,113.000000 65.111107,113.000000 64.332710,112.577972 
	C63.611359,109.899689 63.223965,107.643433 62.836571,105.387184 
z"/>
<path fill="#4D5161" opacity="1.000000" stroke="none" 
	d="
M382.000000,65.555832 
	C379.395844,71.159668 377.014008,76.556725 370.336609,77.600502 
	C369.036133,77.803780 367.681854,78.031708 366.394562,77.883080 
	C362.168488,77.395157 357.961823,76.739128 353.242279,76.076767 
	C353.242279,63.514942 353.242279,50.168358 353.242279,36.482040 
	C355.251007,36.482040 357.282959,36.482040 359.799927,36.482040 
	C359.799927,40.077049 359.799927,43.497425 359.799927,47.003677 
	C372.992035,44.495754 378.627869,47.390770 381.661041,57.860062 
	C382.000000,60.370556 382.000000,62.741116 382.000000,65.555832 
M374.346466,61.558926 
	C374.138306,60.083305 374.198669,58.502522 373.669952,57.152447 
	C372.271423,53.581139 369.733307,51.506973 365.634583,51.851784 
	C361.583588,52.192581 359.985840,54.976685 359.201874,58.396896 
	C357.981171,63.722404 359.527344,69.744873 363.086670,70.708740 
	C365.704193,71.417580 369.398163,70.949608 371.603149,69.485748 
	C373.322845,68.344040 373.489655,64.863220 374.346466,61.558926 
z"/>
<path fill="#EFB504" opacity="1.000000" stroke="none" 
	d="
M39.907333,91.292961 
	C37.733139,89.540070 35.073456,88.138451 33.493885,85.955330 
	C30.854441,82.307358 28.581221,82.712349 25.363838,85.051384 
	C21.866226,87.594154 17.842932,89.066513 16.792713,94.342232 
	C16.403671,96.296562 12.568214,98.360931 9.994822,98.901901 
	C5.906457,99.761345 3.361369,96.771294 1.313080,93.144943 
	C1.000000,91.933327 1.000000,90.866661 1.000000,89.399994 
	C3.896883,84.571686 7.254509,82.716614 13.220400,83.089851 
	C17.224905,83.340378 21.510790,79.093330 25.253170,77.082947 
	C23.849026,70.867683 22.598938,65.334335 21.766521,59.395817 
	C24.137228,58.326859 26.090263,57.663063 28.043299,56.999271 
	C28.740713,68.372765 33.370804,77.682976 42.691025,85.217796 
	C41.868935,87.644203 40.888134,89.468582 39.907333,91.292961 
z"/>
<path fill="#1AACFF" opacity="1.000000" stroke="none" 
	d="
M62.454243,105.332809 
	C63.223965,107.643433 63.611359,109.899689 63.999378,112.577972 
	C62.285641,113.000000 60.571285,113.000000 58.428463,113.000000 
	C56.810722,112.560051 55.621445,112.120094 54.198067,110.994545 
	C54.002586,108.432938 54.041214,106.556915 54.079842,104.680901 
	C56.743870,104.880081 59.407890,105.079254 62.454243,105.332809 
z"/>
<path fill="#4E5261" opacity="1.000000" stroke="none" 
	d="
M172.553375,76.998497 
	C166.627853,77.009743 161.153061,77.009743 155.364105,77.009743 
	C155.364105,63.465427 155.364105,50.213726 155.364105,35.599510 
	C162.653976,36.263870 170.196564,36.040817 177.225143,37.833290 
	C185.156784,39.856071 188.943924,48.807537 188.090927,59.713932 
	C187.355377,69.118614 182.264465,74.947342 172.553375,76.998497 
M179.655273,49.204765 
	C175.896606,42.661140 171.188263,41.159401 162.352203,43.648987 
	C162.352203,52.581142 162.352203,61.493351 162.352203,70.358070 
	C178.212296,72.609428 181.809250,65.339355 180.689713,52.850071 
	C180.602158,51.873337 180.185150,50.926140 179.655273,49.204765 
z"/>
<path fill="#515564" opacity="1.000000" stroke="none" 
	d="
M312.342285,48.041931 
	C312.342072,57.835209 312.342072,67.134880 312.342072,76.726669 
	C309.991028,76.726669 307.934784,76.726669 305.523499,76.726669 
	C305.523499,71.304893 305.523499,66.018051 305.523499,60.378376 
	C298.976227,60.378376 292.770325,60.378376 286.078674,60.378376 
	C286.078674,65.793678 286.078674,71.197083 286.078674,76.800568 
	C283.660797,76.800568 281.719543,76.800568 279.419922,76.800568 
	C279.419922,63.474495 279.419922,50.112698 279.419922,36.439503 
	C281.391632,36.439503 283.317963,36.439503 285.875397,36.439503 
	C285.875397,41.804035 285.875397,47.355011 285.875397,53.147209 
	C292.566040,53.147209 298.631042,53.147209 305.250793,53.147209 
	C305.250793,47.587200 305.250793,42.186897 305.250793,36.463589 
	C307.700653,36.463589 309.605408,36.463589 312.342468,36.463589 
	C312.342468,40.083187 312.342468,43.815750 312.342285,48.041931 
z"/>
<path fill="#4F5362" opacity="1.000000" stroke="none" 
	d="
M273.329742,67.968994 
	C273.329529,71.099411 273.329529,73.751724 273.329529,77.420753 
	C270.648834,76.761551 268.457397,76.222656 265.901520,75.594147 
	C262.997009,76.267654 259.275177,77.696663 255.496643,77.866951 
	C250.512238,78.091583 246.827393,74.466560 246.189270,69.874001 
	C245.571686,65.429092 247.835327,61.466587 252.636215,59.897625 
	C257.003296,58.470428 261.594849,57.730164 266.092865,56.685841 
	C264.317474,50.581806 258.704895,50.294228 252.996887,56.048428 
	C251.383377,55.519329 249.683136,54.961784 247.763046,54.332153 
	C248.349121,49.760235 251.285751,47.239109 255.085785,46.491745 
	C258.560760,45.808308 262.387909,45.951946 265.891541,46.617294 
	C270.448547,47.482662 272.949860,50.764423 273.108429,55.522373 
	C273.241302,59.509911 273.260468,63.501240 273.329742,67.968994 
M265.436554,63.010277 
	C262.351013,63.596256 259.116760,63.802998 256.243164,64.929550 
	C254.824234,65.485802 254.070740,67.739456 253.016174,69.225090 
	C254.638718,70.302795 256.210907,72.202644 257.893158,72.305672 
	C263.159332,72.628181 265.810822,69.509544 265.436554,63.010277 
z"/>
<path fill="#4E5261" opacity="1.000000" stroke="none" 
	d="
M212.679810,46.910583 
	C214.998932,49.734684 218.263504,52.292583 218.597855,55.188770 
	C219.410660,62.229267 218.862381,69.426895 218.862381,77.509766 
	C216.313095,76.775383 214.303055,76.196342 211.757141,75.462929 
	C208.917664,76.143372 205.057907,77.628036 201.122421,77.867386 
	C196.376648,78.156013 192.590607,74.544670 191.976105,70.326561 
	C191.246765,65.320480 193.324646,61.403954 198.311203,59.810024 
	C202.699844,58.407219 207.316055,57.716274 211.842224,56.708630 
	C210.220734,51.913708 204.945114,49.954208 201.363678,53.575035 
	C198.204590,56.768902 196.066345,55.369678 193.246429,54.167404 
	C196.198593,46.442261 202.536514,44.064266 212.679810,46.910583 
M211.859787,65.947411 
	C211.266922,64.968193 210.550949,63.092510 210.101074,63.154293 
	C207.031082,63.575912 203.872177,64.065277 201.055161,65.267006 
	C199.904587,65.757835 198.873947,68.145699 199.021408,69.540161 
	C199.134552,70.610153 201.110382,72.177643 202.379547,72.304329 
	C206.667343,72.732338 210.140030,71.200310 211.859787,65.947411 
z"/>
<path fill="#F0BA0B" opacity="1.000000" stroke="none" 
	d="
M28.155136,56.618637 
	C26.090263,57.663063 24.137228,58.326859 21.841404,59.007492 
	C19.046070,38.618912 36.247475,17.079269 56.939781,15.113844 
	C62.322056,14.602615 67.862236,15.083586 73.248116,15.759990 
	C74.565552,15.925446 75.560707,18.657122 76.704033,20.208939 
	C75.115334,21.052452 73.433899,22.767597 71.951729,22.609892 
	C46.038891,19.852676 31.495901,30.962332 28.155136,56.618637 
z"/>
<path fill="#4F5362" opacity="1.000000" stroke="none" 
	d="
M339.505585,60.832314 
	C339.507019,55.902523 339.507019,51.447571 339.507019,46.713295 
	C341.936523,46.713295 343.858307,46.713295 346.142273,46.713295 
	C346.142273,56.668308 346.142273,66.570091 346.142273,77.478127 
	C343.963959,76.791229 342.054138,76.035904 340.072662,75.634041 
	C339.189850,75.454994 338.082581,75.816414 337.213379,76.223373 
	C327.267426,80.879974 318.922516,76.175362 318.217682,65.177971 
	C317.835815,59.219803 318.149658,53.217049 318.149658,46.826607 
	C320.329773,46.826607 322.374420,46.826607 325.115814,46.826607 
	C325.115814,51.715393 324.846313,56.662979 325.222626,61.560944 
	C325.429596,64.254745 326.114258,67.313103 327.660278,69.415199 
	C330.461914,73.224579 336.872223,71.789124 338.583069,67.177841 
	C339.258362,65.357582 339.218384,63.271942 339.505585,60.832314 
z"/>
<path fill="#505463" opacity="1.000000" stroke="none" 
	d="
M240.710388,52.010292 
	C238.302200,52.017391 236.347321,52.017391 233.938278,52.017391 
	C233.938278,57.357929 233.746719,62.306660 233.988449,67.234131 
	C234.268738,72.947510 239.021271,71.179977 242.722351,71.981682 
	C242.784775,73.359489 242.855560,74.921806 242.961823,77.267212 
	C240.058334,77.267212 237.443893,77.510353 234.891373,77.216263 
	C229.682190,76.616081 227.187698,73.931320 227.014038,68.687080 
	C226.838455,63.384842 226.975311,58.072262 226.975311,52.409912 
	C225.112366,52.161243 223.403671,51.933167 221.473862,51.675571 
	C221.473862,50.121571 221.473862,48.686951 221.473862,46.913902 
	C223.157730,46.617348 224.874664,46.314972 226.913269,45.955940 
	C226.913269,43.474266 226.913269,41.023415 226.913269,38.281654 
	C229.288193,38.281654 231.335587,38.281654 233.695999,38.281654 
	C233.822662,40.832939 233.943420,43.265350 234.085938,46.135986 
	C236.906540,46.307625 239.633041,46.473537 243.587173,46.714149 
	C242.615219,48.835373 241.889465,50.419285 240.710388,52.010292 
z"/>
<path fill="#F0B209" opacity="1.000000" stroke="none" 
	d="
M40.091103,91.572311 
	C40.888134,89.468582 41.868935,87.644203 42.903648,85.476440 
	C51.788471,90.440346 61.118507,92.726791 71.452385,90.541206 
	C72.960091,90.222328 74.925079,92.065567 76.678467,92.908348 
	C75.340630,94.477341 74.215111,97.131607 72.630943,97.441544 
	C61.216187,99.674751 50.241356,98.438385 40.091103,91.572311 
z"/>
<path fill="#DF3969" opacity="1.000000" stroke="none" 
	d="
M89.217339,65.041473 
	C86.115959,75.237221 78.923729,80.999405 68.828201,83.168968 
	C67.237160,83.510887 64.188568,82.164406 63.552113,80.792305 
	C62.232952,77.948387 64.830849,76.661842 67.241829,76.262329 
	C74.887138,74.995461 79.577774,70.319397 83.085846,63.381310 
	C85.496178,63.853619 87.356758,64.447548 89.217339,65.041473 
z"/>
<path fill="#FD5B6A" opacity="1.000000" stroke="none" 
	d="
M80.919617,47.126999 
	C77.010796,42.450645 72.606194,38.730133 66.234772,37.643063 
	C64.950478,37.423939 64.094513,34.694324 63.041069,33.122169 
	C64.596649,32.311237 66.264488,30.641668 67.689674,30.828009 
	C77.307663,32.085556 84.081055,37.436043 87.885361,46.552841 
	C85.341721,46.997070 83.130669,47.062035 80.919617,47.126999 
z"/>
<path fill="#1C95FF" opacity="1.000000" stroke="none" 
	d="
M40.009346,106.962051 
	C35.100231,103.694130 30.029724,100.632904 25.394781,97.013847 
	C24.227160,96.102150 24.453583,93.405090 24.039375,91.528488 
	C26.070515,91.691879 28.452759,91.235748 30.060209,92.146736 
	C33.478500,94.084015 36.493992,96.732018 39.872360,99.778351 
	C40.049870,102.632698 40.029610,104.797371 40.009346,106.962051 
z"/>
<path fill="#1BA1FF" opacity="1.000000" stroke="none" 
	d="
M40.267403,107.213852 
	C40.029610,104.797371 40.049870,102.632698 40.111946,99.996109 
	C44.604416,101.102150 49.055073,102.680115 53.792786,104.469482 
	C54.041214,106.556915 54.002586,108.432938 53.935528,110.775787 
	C49.446552,109.983635 44.986004,108.724648 40.267403,107.213852 
z"/>
<path fill="#F24B65" opacity="1.000000" stroke="none" 
	d="
M80.995216,47.488495 
	C83.130669,47.062035 85.341721,46.997070 87.970795,46.903568 
	C89.058304,49.644821 89.727791,52.414604 89.977646,55.598358 
	C87.588951,55.662842 85.619896,55.313351 83.650848,54.963860 
	C82.790840,52.592571 81.930824,50.221283 80.995216,47.488495 
z"/>
<path fill="#EC4D6E" opacity="1.000000" stroke="none" 
	d="
M83.541740,55.398632 
	C85.619896,55.313351 87.588951,55.662842 89.965485,56.019722 
	C90.141663,58.852837 89.910339,61.678562 89.448181,64.772881 
	C87.356758,64.447548 85.496178,63.853619 83.299889,63.119724 
	C83.120331,60.597641 83.276482,58.215523 83.541740,55.398632 
z"/>
<path fill="#FBFBFB" opacity="1.000000" stroke="none" 
	d="
M374.346497,61.990395 
	C373.489655,64.863220 373.322845,68.344040 371.603149,69.485748 
	C369.398163,70.949608 365.704193,71.417580 363.086670,70.708740 
	C359.527344,69.744873 357.981171,63.722404 359.201874,58.396896 
	C359.985840,54.976685 361.583588,52.192581 365.634583,51.851784 
	C369.733307,51.506973 372.271423,53.581139 373.669952,57.152447 
	C374.198669,58.502522 374.138306,60.083305 374.346497,61.990395 
z"/>
<path fill="#FCFCFC" opacity="1.000000" stroke="none" 
	d="
M179.788269,49.584991 
	C180.185150,50.926140 180.602158,51.873337 180.689713,52.850071 
	C181.809250,65.339355 178.212296,72.609428 162.352203,70.358070 
	C162.352203,61.493351 162.352203,52.581142 162.352203,43.648987 
	C171.188263,41.159401 175.896606,42.661140 179.788269,49.584991 
z"/>
<path fill="#F6F6F7" opacity="1.000000" stroke="none" 
	d="
M265.792053,63.256493 
	C265.810822,69.509544 263.159332,72.628181 257.893158,72.305672 
	C256.210907,72.202644 254.638718,70.302795 253.016174,69.225090 
	C254.070740,67.739456 254.824234,65.485802 256.243164,64.929550 
	C259.116760,63.802998 262.351013,63.596256 265.792053,63.256493 
z"/>
<path fill="#F7F7F8" opacity="1.000000" stroke="none" 
	d="
M211.760147,66.338074 
	C210.140030,71.200310 206.667343,72.732338 202.379547,72.304329 
	C201.110382,72.177643 199.134552,70.610153 199.021408,69.540161 
	C198.873947,68.145699 199.904587,65.757835 201.055161,65.267006 
	C203.872177,64.065277 207.031082,63.575912 210.101074,63.154293 
	C210.550949,63.092510 211.266922,64.968193 211.760147,66.338074 
z"/>
</svg>