<?xml version="1.0" encoding="UTF-8"?>
<svg id="Layer_1" xmlns="http://www.w3.org/2000/svg" viewBox="0 0 288.01 121.07">
  <defs>
    <style>
      .cls-1 {
        fill: #231f20;
      }

      .cls-2 {
        fill: #ed1c24;
      }
    </style>
  </defs>
  <g>
    <circle class="cls-1" cx="162.65" cy="37.14" r="23.24"/>
    <circle class="cls-1" cx="116.18" cy="37.14" r="23.24"/>
    <circle class="cls-1" cx="69.71" cy="37.14" r="23.24"/>
    <circle class="cls-1" cx="23.24" cy="37.14" r="23.24"/>
    <circle class="cls-2" cx="264.77" cy="23.24" r="23.24"/>
  </g>
  <g>
    <g>
      <path class="cls-1" d="M21.26,107.76c.52,2.28,2.15,3.3,4.78,3.3s3.77-1.06,3.77-2.74c0-1.85-1.08-2.67-4.96-3.58-6.04-1.42-7.57-3.61-7.57-6.64,0-3.86,2.89-6.52,8.17-6.52,5.9,0,8.26,3.19,8.58,6.44h-4.75c-.25-1.42-1.04-2.93-3.95-2.93-2.02,0-3.23.84-3.23,2.47s.97,2.24,4.61,3.09c6.5,1.54,7.91,3.96,7.91,7.1,0,4.06-3.07,6.86-8.95,6.86s-8.64-2.82-9.17-6.86h4.75Z"/>
      <path class="cls-1" d="M34.92,97.52h2.61v-4.57h4.53v4.57h3.31v3.42h-3.31v8.38c0,1.3.39,1.81,1.78,1.81.27,0,.73,0,1.08-.06v3.13c-.91.31-2.15.32-3.08.32-3.23,0-4.32-1.72-4.32-4.65v-8.94h-2.61v-3.42Z"/>
      <path class="cls-1" d="M61.97,109.43c0,1.62,0,3.41.03,4.88h-4.44c-.07-.45-.1-1.36-.12-1.97-.98,1.7-2.47,2.36-4.65,2.36-3.38,0-5.6-2.03-5.6-6.23v-10.94h4.52v10.03c0,1.88.58,3.44,2.64,3.44,2.18,0,3.08-1.17,3.08-4.55v-8.92h4.53v11.9Z"/>
      <path class="cls-1" d="M79.96,90.6v19.09c0,1.53,0,3.08.03,4.62h-4.35c-.09-.5-.18-1.39-.21-1.79-.81,1.35-2.27,2.18-4.8,2.18-4.25,0-6.94-3.41-6.94-8.64s2.87-8.92,7.61-8.92c2.45,0,3.75.88,4.13,1.64v-8.18h4.53ZM68.35,105.93c0,3.32,1.32,5.12,3.62,5.12,3.24,0,3.64-2.68,3.64-5.18,0-2.93-.43-5.11-3.52-5.11-2.47,0-3.74,1.93-3.74,5.16Z"/>
      <path class="cls-1" d="M83,90.6h4.53v4.11h-4.53v-4.11ZM83,97.52h4.53v16.78h-4.53v-16.78Z"/>
      <path class="cls-1" d="M106.16,105.88c0,5.06-3.02,8.81-8.32,8.81s-8.21-3.71-8.21-8.72,3.11-8.83,8.42-8.83c4.92,0,8.11,3.49,8.11,8.75ZM94.23,105.91c0,3.26,1.42,5.22,3.71,5.22s3.62-1.96,3.62-5.2c0-3.53-1.32-5.25-3.69-5.25-2.22,0-3.64,1.66-3.64,5.23Z"/>
      <path class="cls-1" d="M130.21,104.59h-10.74v5.84h11.84l-.56,3.87h-15.86v-22.39h15.79v3.87h-11.21v4.94h10.74v3.87Z"/>
      <path class="cls-1" d="M133.11,101.75c0-1.43,0-2.98-.03-4.23h4.39c.09.44.15,1.64.17,2.18.58-1.08,1.94-2.57,4.89-2.57,3.36,0,5.56,2.25,5.56,6.49v10.68h-4.53v-10.18c0-1.93-.65-3.32-2.74-3.32s-3.19,1.19-3.19,4.18v9.32h-4.53v-12.55Z"/>
      <path class="cls-1" d="M154.69,106.88c0,2.19,1.1,4.26,3.45,4.26,1.98,0,2.56-.82,3-1.85h4.53c-.6,2.06-2.43,5.4-7.66,5.4-5.51,0-7.89-4.14-7.89-8.54,0-5.25,2.69-9.02,8.06-9.02,5.74,0,7.69,4.18,7.69,8.33,0,.56,0,.94-.06,1.41h-11.12ZM161.34,104.08c-.03-2.01-.85-3.69-3.16-3.69s-3.2,1.57-3.39,3.69h6.55Z"/>
      <path class="cls-1" d="M168.04,102.08c0-1.71,0-3.18-.03-4.55h4.44c.06.38.12,2.02.12,2.98.75-1.94,2.55-3.35,5.4-3.37v4.33c-3.38-.07-5.4.89-5.4,5.47v7.37h-4.53v-12.23Z"/>
      <path class="cls-1" d="M194.44,112.3c0,5.39-2,8.77-8.3,8.77s-7.29-3.38-7.46-5.3h4.62c.34,1.2,1.23,2,3.04,2,3.07,0,3.66-1.88,3.66-5.21v-.84c-.88,1.48-2.28,2.4-4.76,2.4-4.4,0-6.94-3.61-6.94-8.14,0-5.26,3.14-8.83,7.33-8.83,2.9,0,4.11,1.37,4.37,2.17.03-.48.15-1.5.18-1.78h4.29c-.03,1.46-.04,3.2-.04,4.82v9.95ZM182.95,105.77c0,2.93,1.47,4.68,3.57,4.68,2.85,0,3.62-1.95,3.62-4.83s-.53-4.85-3.52-4.85c-2.09,0-3.67,1.62-3.67,5Z"/>
      <path class="cls-1" d="M200.43,97.52c1.8,5.94,3.31,11.06,3.59,12.62h.03c.38-1.71,1.37-5.47,3.42-12.62h4.51l-5.66,17.28c-1.61,4.83-2.94,6.26-6.93,6.26-.42,0-1.36-.03-2.15-.12v-3.65c.32.04.83.07,1.21.07,1.73,0,2.59-.62,3.24-2.53l-6.12-17.3h4.86Z"/>
    </g>
    <circle class="cls-1" cx="109.73" cy="111.72" r="2.2"/>
  </g>
</svg>